# xmcd
#
# Track frame offsets:
#	150
#	14042
#	28492
#	44710
#	61512
#	76582
#	86305
#	98570
#	115572
#	131772
#	148852
#	164232
#	174252
#
# Disc length: 2601 seconds
#
# Revision: 0
# Processed by: cddbd v1.5.1PL0 Copyright (c) Steve Scherf et al.
# Submitted via: EasyCDDAExtractor 7.1.3.1
#
DISCID=a80a270d
DTITLE=Big Skyota - Long Time Gone
DYEAR=1999
DGENRE=Bluegrass
TTITLE0=Second Wind
TTITLE1=Gospel Plow
TTITLE2=Dreaming in Three-Quarter Time
TTITLE3=Big Skyota
TTITLE4=Long Time Gone
TTITLE5=Rock Hearts
TTITLE6=Down in the Valley to Pray
TTITLE7=Whiskey Before Breakfast
TTITLE8=Build Me a Cabin
TTITLE9=Lonesome Moonlight Waltz
TTITLE10=I Could Find a Way
TTITLE11=I'll Love Nobody But You
TTITLE12=Rank Stranger
EXTD=
EXTT0=
EXTT1=
EXTT2=
EXTT3=
EXTT4=
EXTT5=
EXTT6=
EXTT7=
EXTT8=
EXTT9=
EXTT10=
EXTT11=
EXTT12=
PLAYORDER=
